<?xml version="1.0" standalone="no"?><!DOCTYPE svg PUBLIC "-//W3C//DTD SVG 1.1//EN" "http://www.w3.org/Graphics/SVG/1.1/DTD/svg11.dtd"><svg t="1622619218444" class="icon" viewBox="0 0 1024 1024" version="1.1" xmlns="http://www.w3.org/2000/svg" p-id="25839" xmlns:xlink="http://www.w3.org/1999/xlink" width="200" height="200"><defs><style type="text/css"></style></defs><path d="M841.7 802.3V414.95H182.25v387.35c0 8.85 7.15 16 16 16h627.45c8.85 0 16-7.15 16-16z" fill="#FFC400" p-id="25840"></path><path d="M841.7 446.95v-16H182.3v16zM346.6 545.85c0-17.65 14.35-32 32-32h266.75c17.65 0 32 14.35 32 32v125.55c0 17.65-14.35 32-32 32H378.6c-17.65 0-32-14.35-32-32v-125.55z" fill="#E6B000" p-id="25841"></path><path d="M849.05 205.7H174.95c-12.95 0-24.65 5.3-33.15 13.8S128 239.7 128 252.65v131.4c0 12.95 5.3 24.65 13.8 33.15s20.25 13.8 33.15 13.8H849.1c12.95 0 24.65-5.3 33.15-13.8s13.8-20.25 13.8-33.15V252.65c0-12.95-5.3-24.65-13.8-33.15-8.55-8.5-20.25-13.8-33.2-13.8z" fill="#6D4C41" p-id="25842"></path><path d="M362.6 545.85v125.55c0 8.85 7.15 16 16 16h266.75c8.85 0 16-7.15 16-16v-125.55c0-8.85-7.15-16-16-16H378.6c-8.8 0-16 7.2-16 16z" fill="#FFF8E1" p-id="25843"></path><path d="M404.1 318.35m-25.3 0a25.3 25.3 0 1 0 50.6 0 25.3 25.3 0 1 0-50.6 0Z" fill="#3E2723" p-id="25844"></path><path d="M619.9 318.35m-25.3 0a25.3 25.3 0 1 0 50.6 0 25.3 25.3 0 1 0-50.6 0Z" fill="#3E2723" p-id="25845"></path><path d="M636.5 316.15c-2.95-9.2-12.85-14.3-22.05-11.35-9.2 2.95-14.3 12.85-11.35 22.05l-1.3 5.1H422.2l-1.3-5.1c2.95-9.2-2.1-19.1-11.35-22.05-9.2-2.95-19.1 2.1-22.05 11.35l-16.8 28h-0.05c-3 9.25 2.1 19.15 11.3 22.15 1.9 0.6 3.85 0.9 5.75 0.85h248.6c1.9 0.05 3.85-0.25 5.75-0.85 9.25-3 14.3-12.9 11.3-22.15h-0.05l-16.8-28z" fill="#FFC400" p-id="25846"></path></svg>